# xmcd
#
# Track frame offsets: 
#        150
#        11351
#        23705
#        35085
#        47876
#        60608
#        75964
#        90206
#        104985
#        119824
#        134225
#        148686
#        160006
#
# Disc length: 2330 seconds
#
# Revision: 0
# Processed by: cddbd v1.5.2PL0 Copyright (c) Steve Scherf et al.
# Submitted via: ExactAudioCopy v0.95b3
#
DISCID=b009180d
DTITLE=Mitch Ryder  - Breakout  FLAC
DYEAR=1900
DGENRE=
TTITLE0=Walking the Dog
TTITLE1=I Had It Made
TTITLE2=In the Midnight Hour
TTITLE3=Ooh Poo Pah Doo
TTITLE4=I Like It Like That
TTITLE5=Little Latin Lupe Lu
TTITLE6=Devil With a Blue Dress On - Good Golly Miss Molly
TTITLE7=Shakin' With Linda
TTITLE8=Stubborn Kind of Fellow
TTITLE9=You Get Your Kicks
TTITLE10=I Need Help
TTITLE11=Any Day Now
TTITLE12=Breakout
EXTD=
EXTT0=
EXTT1=
EXTT2=
EXTT3=
EXTT4=
EXTT5=
EXTT6=
EXTT7=
EXTT8=
EXTT9=
EXTT10=
EXTT11=
EXTT12=
PLAYORDER=
